<svg width="1228" height="360" viewBox="0 0 1228 360" fill="none" xmlns="http://www.w3.org/2000/svg">
<rect width="1228" height="360" fill="#2F2F2F"/>
<circle cx="200" cy="180" r="25" fill="white"/>
<circle cx="359" cy="180" r="25" fill="white"/>
<circle cx="281" cy="180" r="25" fill="white"/>
<path d="M546.528 83.56C543.712 83.56 541.312 83.176 539.328 82.408C537.365 81.64 535.861 80.5307 534.816 79.08C533.771 77.608 533.248 75.8373 533.248 73.768C533.248 71.656 533.771 69.8747 534.816 68.424C535.861 66.9733 537.365 65.864 539.328 65.096C541.312 64.328 543.712 63.944 546.528 63.944C546.571 63.944 546.667 63.944 546.816 63.944C546.987 63.944 547.147 63.944 547.296 63.944C547.467 63.944 547.563 63.944 547.584 63.944C550.379 63.944 552.757 64.328 554.72 65.096C556.683 65.864 558.176 66.984 559.2 68.456C560.224 69.9067 560.736 71.6773 560.736 73.768C560.736 75.816 560.224 77.576 559.2 79.048C558.197 80.52 556.725 81.64 554.784 82.408C552.864 83.176 550.517 83.56 547.744 83.56C547.701 83.56 547.584 83.56 547.392 83.56C547.221 83.56 547.04 83.56 546.848 83.56C546.677 83.56 546.571 83.56 546.528 83.56ZM546.944 80.328C546.987 80.328 547.051 80.328 547.136 80.328C547.221 80.328 547.275 80.328 547.296 80.328C549.365 80.3067 551.093 80.0507 552.48 79.56C553.888 79.0693 554.944 78.344 555.648 77.384C556.373 76.4027 556.736 75.1867 556.736 73.736C556.736 72.2853 556.373 71.08 555.648 70.12C554.923 69.16 553.867 68.4347 552.48 67.944C551.093 67.4533 549.387 67.208 547.36 67.208C547.339 67.208 547.275 67.208 547.168 67.208C547.061 67.208 546.987 67.208 546.944 67.208C544.832 67.208 543.051 67.4533 541.6 67.944C540.171 68.4133 539.093 69.1387 538.368 70.12C537.664 71.08 537.312 72.296 537.312 73.768C537.312 75.24 537.685 76.4667 538.432 77.448C539.2 78.408 540.299 79.1333 541.728 79.624C543.157 80.0933 544.896 80.328 546.944 80.328ZM545.088 85.896V61.704H548.928V85.896H545.088ZM566.193 91.432C565.361 91.432 564.529 91.2933 563.697 91.016C562.865 90.7387 562.171 90.3547 561.617 89.864L563.217 86.92C563.622 87.2827 564.081 87.5707 564.593 87.784C565.105 87.9973 565.627 88.104 566.161 88.104C566.886 88.104 567.473 87.9227 567.921 87.56C568.369 87.1973 568.785 86.5893 569.169 85.736L570.161 83.496L570.481 83.016L576.945 67.912H580.785L572.785 86.376C572.251 87.656 571.654 88.6693 570.993 89.416C570.353 90.1627 569.627 90.6853 568.817 90.984C568.027 91.2827 567.153 91.432 566.193 91.432ZM569.713 85.608L562.001 67.912H566.161L572.433 82.664L569.713 85.608ZM583.563 85V67.912H587.563V74.856H596.171V67.912H600.171V85H596.171V78.248H587.563V85H583.563ZM617.788 85L611.612 76.808L614.876 74.792L622.492 85H617.788ZM605.532 85V67.912H609.532V85H605.532ZM608.348 78.152V74.824H614.14V78.152H608.348ZM615.26 76.936L611.516 76.488L617.788 67.912H622.076L615.26 76.936ZM625.313 85V67.912H629.313V81.608H637.473V67.912H641.473V85H625.313ZM640.321 88.808V84.904L641.249 85H637.473V81.608H644.065V88.808H640.321ZM647.626 85V67.912H651.626V79.176L661.066 67.912H664.714V85H660.714V73.736L651.306 85H647.626ZM680.942 85V79.176L681.518 79.848H676.398C674.052 79.848 672.206 79.3573 670.862 78.376C669.54 77.3733 668.878 75.9333 668.878 74.056C668.878 72.0507 669.582 70.5253 670.99 69.48C672.42 68.4347 674.318 67.912 676.686 67.912H684.526V85H680.942ZM668.654 85L673.262 78.472H677.358L672.942 85H668.654ZM680.942 77.896V70.216L681.518 71.272H676.814C675.577 71.272 674.617 71.5067 673.934 71.976C673.273 72.424 672.942 73.16 672.942 74.184C672.942 76.104 674.19 77.064 676.686 77.064H681.518L680.942 77.896Z" fill="white"/>
<path d="M175 288C173.343 288 172 289.343 172 291C172 292.657 173.343 294 175 294L175 288ZM386.121 293.121C387.293 291.95 387.293 290.05 386.121 288.879L367.029 269.787C365.858 268.615 363.958 268.615 362.787 269.787C361.615 270.958 361.615 272.858 362.787 274.029L379.757 291L362.787 307.971C361.615 309.142 361.615 311.042 362.787 312.213C363.958 313.385 365.858 313.385 367.029 312.213L386.121 293.121ZM175 294L384 294L384 288L175 288L175 294Z" fill="#3FFC96"/>
<circle cx="869" cy="180" r="25" fill="#FF5252"/>
<circle cx="1028" cy="180" r="25" fill="#FF5252"/>
<circle cx="950" cy="180" r="25" fill="#FF5252"/>
<path d="M844 288C842.343 288 841 289.343 841 291C841 292.657 842.343 294 844 294L844 288ZM1055.12 293.121C1056.29 291.95 1056.29 290.05 1055.12 288.879L1036.03 269.787C1034.86 268.615 1032.96 268.615 1031.79 269.787C1030.62 270.958 1030.62 272.858 1031.79 274.029L1048.76 291L1031.79 307.971C1030.62 309.142 1030.62 311.042 1031.79 312.213C1032.96 313.385 1034.86 313.385 1036.03 312.213L1055.12 293.121ZM844 294L1053 294L1053 288L844 288L844 294Z" fill="#3FFC96"/>
<rect x="493" y="105" width="242" height="151" rx="20" fill="#3FE5FC"/>
</svg>
